<svg width="20" height="20" viewBox="0 0 20 20" fill="none" xmlns="http://www.w3.org/2000/svg">
<path d="M15.0624 1.29492L18.5399 4.91992V18.7049H5.54932V18.7499H18.5843V4.96555L15.0624 1.29492Z" fill="#909090"/>
<path d="M15.0194 1.25H5.505V18.705H18.54V4.92063L15.0194 1.25Z" fill="#F4F4F4"/>
<path d="M5.4094 2.1875H1.41565V6.45438H13.9782V2.1875H5.4094Z" fill="#7A7B7C"/>
<path d="M14.0449 6.38231H1.49683V2.1123H14.0449V6.38231Z" fill="#DD2025"/>
<path d="M5.65745 2.83367H4.84058V5.83367H5.48308V4.82179L5.62495 4.82992C5.76285 4.82802 5.89949 4.80331 6.02933 4.75679C6.14347 4.71804 6.24837 4.65612 6.33745 4.57492C6.4288 4.49832 6.50058 4.40105 6.54683 4.29117C6.6101 4.10912 6.63251 3.91536 6.61245 3.72367C6.60889 3.5867 6.58487 3.45104 6.5412 3.32117C6.50185 3.2273 6.44333 3.14268 6.36939 3.07273C6.29546 3.00277 6.20773 2.94902 6.11183 2.91492C6.02915 2.8843 5.94346 2.86251 5.8562 2.84992C5.79028 2.83918 5.72361 2.83375 5.65683 2.83367M5.5387 4.26742H5.48308V3.34242H5.6037C5.65694 3.33858 5.71036 3.34675 5.76001 3.36633C5.80967 3.38591 5.85429 3.4164 5.89058 3.45554C5.96578 3.55618 6.00595 3.67867 6.00495 3.80429C6.00495 3.95804 6.00495 4.09742 5.8662 4.19554C5.76627 4.25059 5.65247 4.27597 5.5387 4.26742ZM7.83308 2.82554C7.7637 2.82554 7.6962 2.83054 7.6487 2.83242L7.49995 2.83617H7.01245V5.83617H7.5862C7.80544 5.84181 8.02368 5.80466 8.2287 5.72679C8.39377 5.6616 8.53989 5.5561 8.6537 5.41992C8.76523 5.28314 8.84487 5.12322 8.88683 4.95179C8.93612 4.758 8.96007 4.55863 8.95808 4.35867C8.97031 4.12252 8.95204 3.88577 8.9037 3.65429C8.85743 3.4841 8.77179 3.32717 8.6537 3.19617C8.56107 3.09024 8.44713 3.00505 8.31933 2.94617C8.20984 2.89542 8.09464 2.85807 7.9762 2.83492C7.92911 2.8272 7.88142 2.82364 7.8337 2.82429M7.71995 5.28492H7.65745V3.36992H7.66558C7.79443 3.35502 7.92482 3.37827 8.04058 3.43679C8.12537 3.5045 8.19445 3.58979 8.24308 3.68679C8.29555 3.78888 8.3258 3.90092 8.33183 4.01554C8.33745 4.15304 8.33183 4.26554 8.33183 4.35867C8.33414 4.46594 8.32724 4.57321 8.3112 4.67929C8.29154 4.78808 8.25595 4.89338 8.20558 4.99179C8.14867 5.08357 8.07095 5.16065 7.9787 5.21679C7.90165 5.2668 7.81029 5.29008 7.7187 5.28304M10.8937 2.83617H9.37495V5.83617H10.0175V4.64617H10.83V4.08867H10.0175V3.39367H10.8925V2.83617" fill="#464648"/>
<path d="M13.6132 12.6594C13.6132 12.6594 15.6057 12.2982 15.6057 12.9788C15.6057 13.6594 14.3713 13.3826 13.6132 12.6594ZM12.1401 12.7113C11.8234 12.7811 11.5149 12.8835 11.2194 13.0169L11.4694 12.4544C11.7194 11.8919 11.9788 11.1251 11.9788 11.1251C12.2764 11.6276 12.6235 12.0992 13.0151 12.5326C12.7203 12.5765 12.4282 12.6366 12.1401 12.7126V12.7113ZM11.3513 8.64882C11.3513 8.05569 11.5432 7.89382 11.6926 7.89382C11.8419 7.89382 12.0101 7.96569 12.0157 8.48069C11.9669 8.99853 11.8585 9.509 11.6926 10.0019C11.4644 9.58836 11.3467 9.12299 11.3507 8.65069L11.3513 8.64882ZM8.44568 15.2213C7.83443 14.8557 9.72755 13.7301 10.0707 13.6938C10.0688 13.6944 9.08568 15.6038 8.44568 15.2213ZM16.1876 13.0594C16.1813 12.9969 16.1251 12.3051 14.8938 12.3344C14.3806 12.3254 13.8676 12.3616 13.3607 12.4426C12.8694 11.948 12.4464 11.3899 12.1032 10.7832C12.3193 10.1578 12.4503 9.50607 12.4926 8.84569C12.4744 8.09569 12.2951 7.66569 11.7201 7.67194C11.1451 7.67819 11.0613 8.18132 11.1369 8.93007C11.2109 9.43324 11.3507 9.92451 11.5526 10.3913C11.5526 10.3913 11.2869 11.2182 10.9357 12.0407C10.5844 12.8632 10.3444 13.2944 10.3444 13.2944C9.73354 13.4931 9.15851 13.7885 8.6413 14.1694C8.1263 14.6488 7.91693 15.0169 8.18818 15.3851C8.42193 15.7026 9.24005 15.7744 9.9713 14.8163C10.3592 14.321 10.7141 13.8007 11.0338 13.2588C11.0338 13.2588 12.1488 12.9532 12.4957 12.8694C12.8426 12.7857 13.2619 12.7194 13.2619 12.7194C13.2619 12.7194 14.2801 13.7438 15.2619 13.7076C16.2438 13.6713 16.1963 13.1207 16.1901 13.0607" fill="#DD2025"/>
<path d="M14.9712 1.29785V4.96848H18.4918L14.9712 1.29785Z" fill="#909090"/>
<path d="M15.0194 1.25V4.92062H18.54L15.0194 1.25Z" fill="#F4F4F4"/>
<path d="M5.60936 2.78582H4.79248V5.78582H5.43748V4.77457L5.57998 4.78269C5.71788 4.78079 5.85452 4.75608 5.98436 4.70957C6.09849 4.67081 6.2034 4.60889 6.29248 4.52769C6.38315 4.45088 6.45427 4.35363 6.49998 4.24394C6.56326 4.06189 6.58566 3.86813 6.56561 3.67644C6.56204 3.53948 6.53803 3.40381 6.49436 3.27394C6.455 3.18007 6.39648 3.09545 6.32255 3.0255C6.24861 2.95554 6.16088 2.9018 6.06498 2.86769C5.98192 2.83677 5.89581 2.81477 5.80811 2.80207C5.74219 2.79133 5.67552 2.7859 5.60873 2.78582M5.49061 4.21957H5.43498V3.29457H5.55623C5.60947 3.29073 5.66289 3.2989 5.71254 3.31848C5.7622 3.33806 5.80682 3.36855 5.84311 3.40769C5.9183 3.50833 5.95848 3.63082 5.95748 3.75644C5.95748 3.91019 5.95748 4.04957 5.81873 4.14769C5.7188 4.20274 5.605 4.2275 5.49123 4.21894M7.78498 2.77769C7.71561 2.77769 7.64811 2.78269 7.60061 2.78457L7.45373 2.78832H6.96623V5.78832H7.53998C7.75922 5.79396 7.97746 5.75681 8.18248 5.67894C8.34755 5.61375 8.49367 5.50825 8.60748 5.37207C8.71901 5.23529 8.79865 5.07537 8.84061 4.90394C8.8899 4.71015 8.91385 4.51078 8.91186 4.31082C8.92409 4.07466 8.90581 3.83792 8.85748 3.60644C8.81121 3.43625 8.72557 3.27932 8.60748 3.14832C8.51485 3.04239 8.40091 2.9572 8.27311 2.89832C8.16362 2.84757 8.04841 2.81021 7.92998 2.78707C7.88288 2.77935 7.8352 2.77579 7.78748 2.77644M7.67373 5.23707H7.61123V3.32207H7.61936C7.74821 3.30717 7.8786 3.33042 7.99436 3.38894C8.07914 3.45665 8.14823 3.54194 8.19686 3.63894C8.24933 3.74103 8.27958 3.85307 8.28561 3.96769C8.29123 4.10519 8.28561 4.21769 8.28561 4.31082C8.28792 4.41809 8.28102 4.52535 8.26498 4.63144C8.24532 4.74023 8.20973 4.84553 8.15936 4.94394C8.10245 5.03572 8.02473 5.1128 7.93248 5.16894C7.85543 5.21895 7.76407 5.24222 7.67248 5.23519M10.8456 2.78832H9.32686V5.78832H9.96936V4.59832H10.7819V4.04082H9.96936V3.34582H10.8444V2.78832" fill="white"/>
</svg>
