<svg width="60" height="64" viewBox="0 0 60 64" fill="none" xmlns="http://www.w3.org/2000/svg">
<path d="M26.6697 1.092C28.6512 -0.364001 31.3488 -0.364001 33.3302 1.092L54.341 16.5307C55.6084 17.4621 56.4279 18.8816 56.6007 20.4449L59.4658 46.3599C59.7358 48.804 58.3872 51.1401 56.1355 52.1283L32.2598 62.6045C30.8195 63.2364 29.1804 63.2364 27.7401 62.6045L3.86454 52.1283C1.61285 51.1401 0.264048 48.804 0.534249 46.3599L3.39934 20.4449C3.57216 18.8816 4.39172 17.4621 5.65917 16.5307L26.6697 1.092Z" fill="#079455"/>
<path d="M26.9118 22.539C27.5696 21.9784 27.8986 21.6981 28.2425 21.5337C29.0379 21.1535 29.9626 21.1535 30.758 21.5337C31.1019 21.6981 31.4309 21.9784 32.0887 22.539C32.3505 22.7621 32.4815 22.8737 32.6213 22.9674C32.9418 23.1822 33.3017 23.3313 33.6802 23.406C33.8454 23.4386 34.0168 23.4523 34.3597 23.4797C35.2213 23.5484 35.6521 23.5828 36.0115 23.7097C36.8428 24.0034 37.4967 24.6572 37.7903 25.4885C37.9172 25.8479 37.9516 26.2787 38.0204 27.1403C38.0477 27.4832 38.0614 27.6547 38.094 27.8198C38.1687 28.1983 38.3178 28.5583 38.5327 28.8788C38.6264 29.0186 38.7379 29.1495 38.9611 29.4113C39.5217 30.0692 39.802 30.3981 39.9664 30.742C40.3465 31.5374 40.3465 32.4621 39.9664 33.2575C39.802 33.6015 39.5217 33.9304 38.9611 34.5882C38.7379 34.8501 38.6264 34.981 38.5327 35.1208C38.3178 35.4413 38.1687 35.8012 38.094 36.1797C38.0614 36.3449 38.0477 36.5163 38.0204 36.8592C37.9516 37.7208 37.9172 38.1516 37.7903 38.511C37.4967 39.3423 36.8428 39.9962 36.0115 40.2898C35.6521 40.4167 35.2213 40.4511 34.3597 40.5199C34.0168 40.5472 33.8454 40.5609 33.6802 40.5935C33.3017 40.6683 32.9418 40.8173 32.6213 41.0322C32.4815 41.1259 32.3505 41.2374 32.0887 41.4606C31.4309 42.0212 31.1019 42.3015 30.758 42.4659C29.9626 42.8461 29.0379 42.8461 28.2425 42.4659C27.8986 42.3015 27.5696 42.0212 26.9118 41.4606C26.65 41.2374 26.5191 41.1259 26.3792 41.0322C26.0587 40.8173 25.6988 40.6683 25.3203 40.5935C25.1552 40.5609 24.9837 40.5472 24.6408 40.5199C23.7792 40.4511 23.3484 40.4167 22.989 40.2898C22.1577 39.9962 21.5038 39.3423 21.2102 38.511C21.0833 38.1516 21.0489 37.7208 20.9801 36.8592C20.9528 36.5163 20.9391 36.3449 20.9065 36.1797C20.8318 35.8012 20.6827 35.4413 20.4679 35.1208C20.3742 34.981 20.2626 34.8501 20.0395 34.5882C19.4788 33.9304 19.1985 33.6015 19.0342 33.2575C18.654 32.4621 18.654 31.5374 19.0342 30.742C19.1985 30.3981 19.4788 30.0692 20.0395 29.4113C20.2626 29.1495 20.3742 29.0186 20.4679 28.8788C20.6827 28.5583 20.8318 28.1983 20.9065 27.8198C20.9391 27.6547 20.9528 27.4832 20.9801 27.1403C21.0489 26.2787 21.0833 25.8479 21.2102 25.4885C21.5038 24.6572 22.1577 24.0034 22.989 23.7097C23.3484 23.5828 23.7792 23.5484 24.6408 23.4797C24.9837 23.4523 25.1552 23.4386 25.3203 23.406C25.6988 23.3313 26.0587 23.1822 26.3792 22.9674C26.5191 22.8737 26.65 22.7621 26.9118 22.539Z" stroke="white" stroke-width="2"/>
<path d="M25.417 32.5835L27.7503 34.9168L33.5837 29.0835" stroke="white" stroke-width="2" stroke-linecap="round" stroke-linejoin="round"/>
</svg>
