<svg width="21" height="21" viewBox="0 0 21 21" fill="none" xmlns="http://www.w3.org/2000/svg">
<path d="M12.653 0.317131C13.2737 0.317162 13.8676 0.322468 14.4613 0.314321C14.6648 0.311528 14.8455 0.360856 15.0289 0.467748C16.7242 1.45571 18.4175 2.44861 20.1245 3.40865C20.5809 3.66534 20.766 3.99755 20.7638 4.59831C20.746 9.45859 20.7538 14.319 20.7532 19.1794C20.7531 19.3465 20.7588 19.5154 20.7409 19.6804C20.7013 20.0455 20.4738 20.2819 20.1602 20.3003C20.0794 20.305 19.9982 20.3018 19.9173 20.3018C15.7248 20.3018 11.5323 20.2928 7.33988 20.3142C6.87523 20.3165 6.51029 20.156 6.14804 19.8588C4.55396 18.551 2.95981 17.243 1.35018 15.9614C0.93876 15.6338 0.760917 15.2688 0.763829 14.6711C0.785588 10.2075 0.776957 5.74375 0.778448 1.28003C0.778702 0.520387 0.956311 0.31742 1.61395 0.317409C5.28463 0.31734 8.9553 0.317231 12.653 0.317131ZM19.0981 15.7448C19.1431 15.7448 19.1881 15.745 19.233 15.7448C19.5937 15.7432 19.5942 15.7432 19.5957 15.3299C19.5969 14.985 19.5969 14.6401 19.5969 14.2953C19.5966 11.3273 19.5965 8.3593 19.5952 5.39132C19.595 4.8868 19.5833 4.87539 19.1648 4.87543C18.2474 4.87553 17.33 4.87576 16.4126 4.87664C16.0607 4.87698 16.0579 4.87786 16.0575 5.29879C16.0563 6.70964 16.0607 8.12052 16.0555 9.53135C16.0535 10.0871 15.8334 10.3341 15.3612 10.3348C14.1469 10.3365 12.9327 10.3361 11.7185 10.3344C11.1942 10.3336 11.0157 10.1199 11.0152 9.49775C11.0142 8.08689 11.0086 6.67598 11.0185 5.26521C11.0205 4.97204 10.9521 4.8639 10.6853 4.86879C9.74114 4.88608 8.7966 4.87554 7.8522 4.87626C7.48545 4.87654 7.48436 4.87739 7.48437 5.30733C7.48445 8.58888 7.4838 11.8704 7.48639 15.152C7.48693 15.822 7.40882 15.7436 8.00951 15.7439C11.6882 15.7461 15.3668 15.7449 19.0981 15.7448ZM6.31916 7.20476C6.31912 6.47363 6.31012 5.74227 6.32379 5.01148C6.32872 4.74805 6.26099 4.5962 6.05053 4.47633C5.03399 3.89734 4.02584 3.29846 3.0134 2.70968C2.68107 2.51641 2.3448 2.33228 1.97824 2.12591C1.95914 2.32454 1.93348 2.46773 1.93336 2.61095C1.93085 5.50413 1.93224 8.39732 1.92878 11.2905C1.92857 11.4651 1.97685 11.5777 2.10237 11.6791C3.44484 12.7636 4.78332 13.8549 6.12357 14.9432C6.17174 14.9823 6.21728 15.0487 6.31909 14.9821C6.31909 12.4222 6.31909 9.84484 6.31916 7.20476ZM16.1348 18.9447C17.1781 18.9447 18.2215 18.9365 19.2647 18.9509C19.5031 18.9542 19.5938 18.8528 19.5895 18.594C19.5838 18.2598 19.574 17.9256 19.5762 17.5915C19.5794 17.0987 19.5833 17.0979 19.1508 17.0979C15.4631 17.0974 11.7755 17.0973 8.08786 17.0969C7.97094 17.0969 7.85368 17.1022 7.73717 17.0939C7.55641 17.0809 7.47555 17.1596 7.48207 17.3827C7.49305 17.7585 7.48481 18.135 7.48526 18.5112C7.48578 18.9432 7.48606 18.9449 7.85106 18.9449C10.5943 18.9453 13.3375 18.9448 16.1348 18.9447ZM16.187 2.66486C15.8666 2.47563 15.5403 2.29872 15.2272 2.09434C14.7464 1.78044 14.247 1.65826 13.6869 1.66269C10.5583 1.68747 7.42943 1.67439 4.30067 1.67425C4.19775 1.67424 4.09483 1.67425 3.91325 1.67425C4.02918 1.77042 4.06869 1.81314 4.11499 1.8401C4.89389 2.29376 5.68215 2.72699 6.44983 3.20488C6.87151 3.46738 7.30103 3.53024 7.76864 3.52834C10.9243 3.51548 14.08 3.52223 17.2357 3.52088C17.3305 3.52084 17.4297 3.54825 17.5601 3.46703C17.098 3.19523 16.6615 2.93841 16.187 2.66486ZM14.8642 7.83193C14.8637 6.95402 14.8585 6.07606 14.8657 5.19824C14.8676 4.9572 14.7993 4.86731 14.5847 4.87112C13.8743 4.88373 13.1635 4.88102 12.453 4.87339C12.2591 4.87131 12.1791 4.94638 12.1803 5.18107C12.1866 6.3516 12.1855 7.52221 12.1808 8.69276C12.1801 8.88522 12.2247 8.98246 12.4072 8.98094C13.1537 8.97474 13.9003 8.97579 14.6469 8.9803C14.8146 8.98131 14.8664 8.88754 14.8636 8.70978C14.8593 8.43815 14.8635 8.16633 14.8642 7.83193ZM2.1941 14.962C3.55186 16.0679 4.90963 17.1739 6.31899 18.3219C6.31899 17.8491 6.31052 17.4551 6.3225 17.0619C6.32864 16.8605 6.26589 16.7344 6.12597 16.6213C5.13708 15.8225 4.15384 15.0143 3.16592 14.2139C2.77803 13.8996 2.40872 13.5518 1.96573 13.2738C1.91512 13.6751 1.94818 14.0498 1.92789 14.421C1.91484 14.6597 1.98459 14.825 2.1941 14.962Z" fill="black"/>
</svg>
